<svg id="CircleScale" data-name="CircleScale" xmlns="http://www.w3.org/2000/svg" viewBox="0 0 216.74 293.18"><defs><style>.cls-1{fill:#e0e0ef;stroke:#7d7c7d;stroke-width:0.75px;}.cls-1,.cls-3,.cls-4,.cls-5,.cls-6{stroke-miterlimit:10;}.cls-2{font-size:12px;fill:#231f20;font-family:Georgia-Bold, Georgia;font-weight:700;}.cls-3,.cls-4,.cls-5,.cls-6{fill:none;stroke:#231f20;stroke-width:0.25px;}.cls-4{stroke-dasharray:1 1;}.cls-5{stroke-dasharray:1 1;}.cls-6{stroke-dasharray:1 1;}</style></defs><title>CircleScale</title><circle class="cls-1" cx="46.88" cy="47.58" r="46.5"/><circle class="cls-1" cx="46.87" cy="221.71" r="17.99"/><circle class="cls-1" cx="46.87" cy="148.9" r="32.11"/><text class="cls-2" transform="translate(106.8 272.37)">0.015% foreign</text><line class="cls-3" x1="45.69" y1="262.08" x2="46.19" y2="262.08"/><line class="cls-4" x1="47.19" y1="262.08" x2="132.94" y2="262.08"/><line class="cls-3" x1="133.44" y1="262.08" x2="133.94" y2="262.08"/><line class="cls-3" x1="43.95" y1="203.61" x2="44.45" y2="203.61"/><line class="cls-5" x1="45.45" y1="203.61" x2="132.94" y2="203.61"/><line class="cls-3" x1="133.44" y1="203.61" x2="133.94" y2="203.61"/><line class="cls-3" x1="44.3" y1="116.71" x2="44.8" y2="116.71"/><line class="cls-6" x1="45.79" y1="116.71" x2="132.94" y2="116.71"/><line class="cls-3" x1="133.44" y1="116.71" x2="133.94" y2="116.71"/><line class="cls-3" x1="43.95" y1="0.13" x2="44.45" y2="0.13"/><line class="cls-5" x1="45.45" y1="0.13" x2="132.94" y2="0.13"/><line class="cls-3" x1="133.44" y1="0.13" x2="133.94" y2="0.13"/><circle class="cls-1" cx="46.88" cy="269.39" r="6.97"/><text class="cls-2" transform="translate(106.8 11.03)">10%</text><text class="cls-2" transform="translate(106.8 214.77)">4.3%</text><text class="cls-2" transform="translate(106.8 127.23)">7.1%</text><text class="cls-2" transform="translate(106.8 23.49)">19,000</text><text class="cls-2" transform="translate(106.8 287.1)">5 applicants</text><text class="cls-2" transform="translate(106.8 228.72)">6,000</text><text class="cls-2" transform="translate(106.8 140.02)">12,500</text></svg>